<mxfile host="invibe.nohost.me" modified="2023-01-21T16:05:36.439Z" agent="5.0 (Macintosh)" etag="5qyxqPtjIt28ByzyRzSr" version="20.5.3" type="embed"><diagram name="Page 2" id="0"><mxGraphModel dx="2937" dy="2376" grid="1" gridSize="10" guides="1" tooltips="1" connect="1" arrows="1" fold="1" page="1" pageScale="1" pageWidth="827" pageHeight="1169" math="0" shadow="0"><root><mxCell id="0"/><mxCell id="1" parent="0"/><mxCell id="2" style="graphMlID=n0;gradientDirection=east;shape=ext;fillColor=#e8eef7;gradientColor=#b7c9e3;strokeColor=#000000;strokeWidth=1.0;shadow=1" parent="1" vertex="1"><mxGeometry x="-105.98399999999998" y="-33.22799999999995" width="57.599999999999994" height="23.359999999999985" as="geometry"/></mxCell><mxCell id="0.0.0" value="876-1/" style="text;html=1;spacing=0;align=center;fontFamily=dialog;fontSize=12;fontStyle=0;=center;fontColor=#000000;verticalAlign=bottom" parent="2" vertex="1"><mxGeometry x="9.787304687499997" y="2.3294140624999926" width="38.025390625" height="18.701171875" as="geometry"/></mxCell><mxCell id="3" style="graphMlID=n1;gradientDirection=east;shape=ext;fillColor=#e8eef7;gradientColor=#b7c9e3;strokeColor=#000000;strokeWidth=1.0;shadow=1" parent="1" vertex="1"><mxGeometry x="-105.98399999999998" y="-3.9199999999999307" width="57.599999999999994" height="23.359999999999985" as="geometry"/></mxCell><mxCell id="0.1.0" value="876-2/" style="text;html=1;spacing=0;align=center;fontFamily=dialog;fontSize=12;fontStyle=0;=center;fontColor=#000000;verticalAlign=bottom" parent="3" vertex="1"><mxGeometry x="9.787304687499997" y="2.3294140624999926" width="38.025390625" height="18.701171875" as="geometry"/></mxCell><mxCell id="4" style="graphMlID=n2;gradientDirection=east;shape=ext;fillColor=#e8eef7;gradientColor=#b7c9e3;strokeColor=#000000;strokeWidth=1.0;shadow=1" parent="1" vertex="1"><mxGeometry x="-105.98399999999998" y="25.38800000000009" width="57.599999999999994" height="23.359999999999985" as="geometry"/></mxCell><mxCell id="0.2.0" value="876-3/" style="text;html=1;spacing=0;align=center;fontFamily=dialog;fontSize=12;fontStyle=0;=center;fontColor=#000000;verticalAlign=bottom" parent="4" vertex="1"><mxGeometry x="9.787304687499997" y="2.3294140624999926" width="38.025390625" height="18.701171875" as="geometry"/></mxCell><mxCell id="5" style="graphMlID=n3;gradientDirection=east;shape=ext;fillColor=#e8eef7;gradientColor=#b7c9e3;strokeColor=#000000;strokeWidth=1.0;shadow=1" parent="1" vertex="1"><mxGeometry x="-163.58399999999997" y="-69.70399999999998" width="57.599999999999994" height="23.359999999999985" as="geometry"/></mxCell><mxCell id="0.3.0" value="bio7/" style="text;html=1;spacing=0;align=center;fontFamily=dialog;fontSize=12;fontStyle=0;=center;fontColor=#000000;verticalAlign=bottom" parent="5" vertex="1"><mxGeometry x="13.789257812499983" y="2.3294140624999926" width="30.021484375" height="18.701171875" as="geometry"/></mxCell><mxCell id="6" style="graphMlID=n4;shape=image;fillColor=#ccccff;strokeColor=#000000;strokeWidth=1.0;image=data:image/svg+xml,PD94bWwgdmVyc2lvbj0iMS4wIiBlbmNvZGluZz0idXRmLTgiPz4KPHN2ZyB2ZXJzaW9uPSIxLjEiCgkgeG1sbnM9Imh0dHA6Ly93d3cudzMub3JnLzIwMDAvc3ZnIiB4bWxuczp4bGluaz0iaHR0cDovL3d3dy53My5vcmcvMTk5OS94bGluayIKCSB4PSIwcHgiIHk9IjBweCIgd2lkdGg9IjQxcHgiIGhlaWdodD0iNDhweCIgdmlld0JveD0iLTAuODc1IC0wLjg4NyA0MSA0OCIgZW5hYmxlLWJhY2tncm91bmQ9Im5ldyAtMC44NzUgLTAuODg3IDQxIDQ4IgoJIHhtbDpzcGFjZT0icHJlc2VydmUiPgo8ZGVmcz4KPC9kZWZzPgo8bGluZWFyR3JhZGllbnQgaWQ9IlNWR0lEXzFfIiBncmFkaWVudFVuaXRzPSJ1c2VyU3BhY2VPblVzZSIgeDE9IjY0Mi44MDA4IiB5MT0iLTk3OS4xNDQ1IiB4Mj0iNjgyLjA1MDgiIHkyPSItOTc5LjE0NDUiIGdyYWRpZW50VHJhbnNmb3JtPSJtYXRyaXgoMSAwIDAgLTEgLTY0Mi44MDA4IC05MzkuNDc1NikiPgoJPHN0b3AgIG9mZnNldD0iMCIgc3R5bGU9InN0b3AtY29sb3I6IzNDODlDOSIvPgoJPHN0b3AgIG9mZnNldD0iMC4xNDgyIiBzdHlsZT0ic3RvcC1jb2xvcjojNjBBNkREIi8+Cgk8c3RvcCAgb2Zmc2V0PSIwLjMxMTMiIHN0eWxlPSJzdG9wLWNvbG9yOiM4MUMxRjAiLz4KCTxzdG9wICBvZmZzZXQ9IjAuNDQ3NiIgc3R5bGU9InN0b3AtY29sb3I6Izk1RDFGQiIvPgoJPHN0b3AgIG9mZnNldD0iMC41Mzk0IiBzdHlsZT0ic3RvcC1jb2xvcjojOUNEN0ZGIi8+Cgk8c3RvcCAgb2Zmc2V0PSIwLjYzNiIgc3R5bGU9InN0b3AtY29sb3I6Izk4RDRGRCIvPgoJPHN0b3AgIG9mZnNldD0iMC43MjkzIiBzdHlsZT0ic3RvcC1jb2xvcjojOERDQUY2Ii8+Cgk8c3RvcCAgb2Zmc2V0PSIwLjgyMTQiIHN0eWxlPSJzdG9wLWNvbG9yOiM3OUJCRUIiLz4KCTxzdG9wICBvZmZzZXQ9IjAuOTEyIiBzdHlsZT0ic3RvcC1jb2xvcjojNUVBNURDIi8+Cgk8c3RvcCAgb2Zmc2V0PSIxIiBzdHlsZT0ic3RvcC1jb2xvcjojM0M4OUM5Ii8+CjwvbGluZWFyR3JhZGllbnQ+CjxwYXRoIGZpbGw9InVybCgjU1ZHSURfMV8pIiBkPSJNMTkuNjI1LDM2Ljc2M0M4Ljc4NywzNi43NjMsMCwzNC44ODgsMCwzMi41NzV2MTBjMCwyLjMxMyw4Ljc4Nyw0LjE4OCwxOS42MjUsNC4xODgKCWMxMC44MzksMCwxOS42MjUtMS44NzUsMTkuNjI1LTQuMTg4di0xMEMzOS4yNSwzNC44ODgsMzAuNDY0LDM2Ljc2MywxOS42MjUsMzYuNzYzeiIvPgo8bGluZWFyR3JhZGllbnQgaWQ9IlNWR0lEXzJfIiBncmFkaWVudFVuaXRzPSJ1c2VyU3BhY2VPblVzZSIgeDE9IjY0Mi44MDA4IiB5MT0iLTk3My4xNDQ1IiB4Mj0iNjgyLjA1MDgiIHkyPSItOTczLjE0NDUiIGdyYWRpZW50VHJhbnNmb3JtPSJtYXRyaXgoMSAwIDAgLTEgLTY0Mi44MDA4IC05MzkuNDc1NikiPgoJPHN0b3AgIG9mZnNldD0iMCIgc3R5bGU9InN0b3AtY29sb3I6IzlDRDdGRiIvPgoJPHN0b3AgIG9mZnNldD0iMC4wMDM5IiBzdHlsZT0ic3RvcC1jb2xvcjojOUREN0ZGIi8+Cgk8c3RvcCAgb2Zmc2V0PSIwLjIyNzMiIHN0eWxlPSJzdG9wLWNvbG9yOiNCREU1RkYiLz4KCTxzdG9wICBvZmZzZXQ9IjAuNDEzOCIgc3R5bGU9InN0b3AtY29sb3I6I0QxRUVGRiIvPgoJPHN0b3AgIG9mZnNldD0iMC41Mzk0IiBzdHlsZT0ic3RvcC1jb2xvcjojRDlGMUZGIi8+Cgk8c3RvcCAgb2Zmc2V0PSIwLjYxNTUiIHN0eWxlPSJzdG9wLWNvbG9yOiNENUVGRkUiLz4KCTxzdG9wICBvZmZzZXQ9IjAuNjg5MSIgc3R5bGU9InN0b3AtY29sb3I6I0M5RTdGQSIvPgoJPHN0b3AgIG9mZnNldD0iMC43NjE3IiBzdHlsZT0ic3RvcC1jb2xvcjojQjZEQUYzIi8+Cgk8c3RvcCAgb2Zmc2V0PSIwLjgzMzciIHN0eWxlPSJzdG9wLWNvbG9yOiM5QUM4RUEiLz4KCTxzdG9wICBvZmZzZXQ9IjAuOTA1MiIgc3R5bGU9InN0b3AtY29sb3I6Izc3QjBERCIvPgoJPHN0b3AgIG9mZnNldD0iMC45NzU0IiBzdHlsZT0ic3RvcC1jb2xvcjojNEQ5NENGIi8+Cgk8c3RvcCAgb2Zmc2V0PSIxIiBzdHlsZT0ic3RvcC1jb2xvcjojM0M4OUM5Ii8+CjwvbGluZWFyR3JhZGllbnQ+CjxwYXRoIGZpbGw9InVybCgjU1ZHSURfMl8pIiBkPSJNMTkuNjI1LDM2Ljc2M2MxMC44MzksMCwxOS42MjUtMS44NzUsMTkuNjI1LTQuMTg4bC0xLjIyOS0yYzAsMi4xNjgtOC4yMzUsMy45MjctMTguMzk2LDMuOTI3CgljLTkuNDgxLDAtMTcuMzk2LTEuOTU5LTE4LjM5Ni0zLjkyN2wtMS4yMjksMkMwLDM0Ljg4OCw4Ljc4NywzNi43NjMsMTkuNjI1LDM2Ljc2M3oiLz4KPHBhdGggZmlsbD0iIzNDODlDOSIgZD0iTTE5LjYyNSwyNi40NjhjMTAuMTYsMCwxOS42MjUsMi43NzUsMTkuNjI1LDIuNzc1Yy0wLjM3NSwyLjcyMS01LjM2Nyw1LjQzOC0xOS41NTQsNS40MzgKCWMtMTIuMTI1LDAtMTguNDY3LTIuNDg0LTE5LjU0MS00LjkxOEMtMC4xMjcsMjkuMTI1LDkuNDY1LDI2LjQ2OCwxOS42MjUsMjYuNDY4eiIvPgo8bGluZWFyR3JhZGllbnQgaWQ9IlNWR0lEXzNfIiBncmFkaWVudFVuaXRzPSJ1c2VyU3BhY2VPblVzZSIgeDE9IjY0Mi44MDA4IiB5MT0iLTk2NS42OTQ4IiB4Mj0iNjgyLjA1MDgiIHkyPSItOTY1LjY5NDgiIGdyYWRpZW50VHJhbnNmb3JtPSJtYXRyaXgoMSAwIDAgLTEgLTY0Mi44MDA4IC05MzkuNDc1NikiPgoJPHN0b3AgIG9mZnNldD0iMCIgc3R5bGU9InN0b3AtY29sb3I6IzNDODlDOSIvPgoJPHN0b3AgIG9mZnNldD0iMC4xNDgyIiBzdHlsZT0ic3RvcC1jb2xvcjojNjBBNkREIi8+Cgk8c3RvcCAgb2Zmc2V0PSIwLjMxMTMiIHN0eWxlPSJzdG9wLWNvbG9yOiM4MUMxRjAiLz4KCTxzdG9wICBvZmZzZXQ9IjAuNDQ3NiIgc3R5bGU9InN0b3AtY29sb3I6Izk1RDFGQiIvPgoJPHN0b3AgIG9mZnNldD0iMC41Mzk0IiBzdHlsZT0ic3RvcC1jb2xvcjojOUNEN0ZGIi8+Cgk8c3RvcCAgb2Zmc2V0PSIwLjYzNiIgc3R5bGU9InN0b3AtY29sb3I6Izk4RDRGRCIvPgoJPHN0b3AgIG9mZnNldD0iMC43MjkzIiBzdHlsZT0ic3RvcC1jb2xvcjojOERDQUY2Ii8+Cgk8c3RvcCAgb2Zmc2V0PSIwLjgyMTQiIHN0eWxlPSJzdG9wLWNvbG9yOiM3OUJCRUIiLz4KCTxzdG9wICBvZmZzZXQ9IjAuOTEyIiBzdHlsZT0ic3RvcC1jb2xvcjojNUVBNURDIi8+Cgk8c3RvcCAgb2Zmc2V0PSIxIiBzdHlsZT0ic3RvcC1jb2xvcjojM0M4OUM5Ii8+CjwvbGluZWFyR3JhZGllbnQ+CjxwYXRoIGZpbGw9InVybCgjU1ZHSURfM18pIiBkPSJNMTkuNjI1LDIzLjMxM0M4Ljc4NywyMy4zMTMsMCwyMS40MzgsMCwxOS4xMjV2MTBjMCwyLjMxMyw4Ljc4Nyw0LjE4OCwxOS42MjUsNC4xODgKCWMxMC44MzksMCwxOS42MjUtMS44NzUsMTkuNjI1LTQuMTg4di0xMEMzOS4yNSwyMS40MzgsMzAuNDY0LDIzLjMxMywxOS42MjUsMjMuMzEzeiIvPgo8bGluZWFyR3JhZGllbnQgaWQ9IlNWR0lEXzRfIiBncmFkaWVudFVuaXRzPSJ1c2VyU3BhY2VPblVzZSIgeDE9IjY0Mi44MDA4IiB5MT0iLTk1OS42OTQ4IiB4Mj0iNjgyLjA1MDgiIHkyPSItOTU5LjY5NDgiIGdyYWRpZW50VHJhbnNmb3JtPSJtYXRyaXgoMSAwIDAgLTEgLTY0Mi44MDA4IC05MzkuNDc1NikiPgoJPHN0b3AgIG9mZnNldD0iMCIgc3R5bGU9InN0b3AtY29sb3I6IzlDRDdGRiIvPgoJPHN0b3AgIG9mZnNldD0iMC4wMDM5IiBzdHlsZT0ic3RvcC1jb2xvcjojOUREN0ZGIi8+Cgk8c3RvcCAgb2Zmc2V0PSIwLjIyNzMiIHN0eWxlPSJzdG9wLWNvbG9yOiNCREU1RkYiLz4KCTxzdG9wICBvZmZzZXQ9IjAuNDEzOCIgc3R5bGU9InN0b3AtY29sb3I6I0QxRUVGRiIvPgoJPHN0b3AgIG9mZnNldD0iMC41Mzk0IiBzdHlsZT0ic3RvcC1jb2xvcjojRDlGMUZGIi8+Cgk8c3RvcCAgb2Zmc2V0PSIwLjYxNTUiIHN0eWxlPSJzdG9wLWNvbG9yOiNENUVGRkUiLz4KCTxzdG9wICBvZmZzZXQ9IjAuNjg5MSIgc3R5bGU9InN0b3AtY29sb3I6I0M5RTdGQSIvPgoJPHN0b3AgIG9mZnNldD0iMC43NjE3IiBzdHlsZT0ic3RvcC1jb2xvcjojQjZEQUYzIi8+Cgk8c3RvcCAgb2Zmc2V0PSIwLjgzMzciIHN0eWxlPSJzdG9wLWNvbG9yOiM5QUM4RUEiLz4KCTxzdG9wICBvZmZzZXQ9IjAuOTA1MiIgc3R5bGU9InN0b3AtY29sb3I6Izc3QjBERCIvPgoJPHN0b3AgIG9mZnNldD0iMC45NzU0IiBzdHlsZT0ic3RvcC1jb2xvcjojNEQ5NENGIi8+Cgk8c3RvcCAgb2Zmc2V0PSIxIiBzdHlsZT0ic3RvcC1jb2xvcjojM0M4OUM5Ii8+CjwvbGluZWFyR3JhZGllbnQ+CjxwYXRoIGZpbGw9InVybCgjU1ZHSURfNF8pIiBkPSJNMTkuNjI1LDIzLjMxM2MxMC44MzksMCwxOS42MjUtMS44NzUsMTkuNjI1LTQuMTg4bC0xLjIyOS0yYzAsMi4xNjgtOC4yMzUsMy45MjYtMTguMzk2LDMuOTI2CgljLTkuNDgxLDAtMTcuMzk2LTEuOTU5LTE4LjM5Ni0zLjkyNmwtMS4yMjksMkMwLDIxLjQzOCw4Ljc4NywyMy4zMTMsMTkuNjI1LDIzLjMxM3oiLz4KPHBhdGggZmlsbD0iIzNDODlDOSIgZD0iTTE5LjQ3NiwxMy4wMTljMTAuMTYxLDAsMTkuNjI1LDIuNzc1LDE5LjYyNSwyLjc3NWMtMC4zNzUsMi43MjEtNS4zNjcsNS40MzgtMTkuNTU1LDUuNDM4CgljLTEyLjEyNSwwLTE4LjQ2Ny0yLjQ4NS0xOS41NDEtNC45MThDLTAuMjc3LDE1LjY3NCw5LjMxNiwxMy4wMTksMTkuNDc2LDEzLjAxOXoiLz4KPGxpbmVhckdyYWRpZW50IGlkPSJTVkdJRF81XyIgZ3JhZGllbnRVbml0cz0idXNlclNwYWNlT25Vc2UiIHgxPSI2NDIuODAwOCIgeTE9Ii05NTIuNDk0NiIgeDI9IjY4Mi4wNTA4IiB5Mj0iLTk1Mi40OTQ2IiBncmFkaWVudFRyYW5zZm9ybT0ibWF0cml4KDEgMCAwIC0xIC02NDIuODAwOCAtOTM5LjQ3NTYpIj4KCTxzdG9wICBvZmZzZXQ9IjAiIHN0eWxlPSJzdG9wLWNvbG9yOiMzQzg5QzkiLz4KCTxzdG9wICBvZmZzZXQ9IjAuMTQ4MiIgc3R5bGU9InN0b3AtY29sb3I6IzYwQTZERCIvPgoJPHN0b3AgIG9mZnNldD0iMC4zMTEzIiBzdHlsZT0ic3RvcC1jb2xvcjojODFDMUYwIi8+Cgk8c3RvcCAgb2Zmc2V0PSIwLjQ0NzYiIHN0eWxlPSJzdG9wLWNvbG9yOiM5NUQxRkIiLz4KCTxzdG9wICBvZmZzZXQ9IjAuNTM5NCIgc3R5bGU9InN0b3AtY29sb3I6IzlDRDdGRiIvPgoJPHN0b3AgIG9mZnNldD0iMC42MzYiIHN0eWxlPSJzdG9wLWNvbG9yOiM5OEQ0RkQiLz4KCTxzdG9wICBvZmZzZXQ9IjAuNzI5MyIgc3R5bGU9InN0b3AtY29sb3I6IzhEQ0FGNiIvPgoJPHN0b3AgIG9mZnNldD0iMC44MjE0IiBzdHlsZT0ic3RvcC1jb2xvcjojNzlCQkVCIi8+Cgk8c3RvcCAgb2Zmc2V0PSIwLjkxMiIgc3R5bGU9InN0b3AtY29sb3I6IzVFQTVEQyIvPgoJPHN0b3AgIG9mZnNldD0iMSIgc3R5bGU9InN0b3AtY29sb3I6IzNDODlDOSIvPgo8L2xpbmVhckdyYWRpZW50Pgo8cGF0aCBmaWxsPSJ1cmwoI1NWR0lEXzVfKSIgZD0iTTE5LjYyNSwxMC4xMTNDOC43ODcsMTAuMTEzLDAsOC4yMzgsMCw1LjkyNXYxMGMwLDIuMzEzLDguNzg3LDQuMTg4LDE5LjYyNSw0LjE4OAoJYzEwLjgzOSwwLDE5LjYyNS0xLjg3NSwxOS42MjUtNC4xODh2LTEwQzM5LjI1LDguMjM4LDMwLjQ2NCwxMC4xMTMsMTkuNjI1LDEwLjExM3oiLz4KPGxpbmVhckdyYWRpZW50IGlkPSJTVkdJRF82XyIgZ3JhZGllbnRVbml0cz0idXNlclNwYWNlT25Vc2UiIHgxPSI2NDIuODAwOCIgeTE9Ii05NDYuNDk0NiIgeDI9IjY4Mi4wNTA4IiB5Mj0iLTk0Ni40OTQ2IiBncmFkaWVudFRyYW5zZm9ybT0ibWF0cml4KDEgMCAwIC0xIC02NDIuODAwOCAtOTM5LjQ3NTYpIj4KCTxzdG9wICBvZmZzZXQ9IjAiIHN0eWxlPSJzdG9wLWNvbG9yOiM5Q0Q3RkYiLz4KCTxzdG9wICBvZmZzZXQ9IjAuMDAzOSIgc3R5bGU9InN0b3AtY29sb3I6IzlERDdGRiIvPgoJPHN0b3AgIG9mZnNldD0iMC4yMjczIiBzdHlsZT0ic3RvcC1jb2xvcjojQkRFNUZGIi8+Cgk8c3RvcCAgb2Zmc2V0PSIwLjQxMzgiIHN0eWxlPSJzdG9wLWNvbG9yOiNEMUVFRkYiLz4KCTxzdG9wICBvZmZzZXQ9IjAuNTM5NCIgc3R5bGU9InN0b3AtY29sb3I6I0Q5RjFGRiIvPgoJPHN0b3AgIG9mZnNldD0iMC42MTU1IiBzdHlsZT0ic3RvcC1jb2xvcjojRDVFRkZFIi8+Cgk8c3RvcCAgb2Zmc2V0PSIwLjY4OTEiIHN0eWxlPSJzdG9wLWNvbG9yOiNDOUU3RkEiLz4KCTxzdG9wICBvZmZzZXQ9IjAuNzYxNyIgc3R5bGU9InN0b3AtY29sb3I6I0I2REFGMyIvPgoJPHN0b3AgIG9mZnNldD0iMC44MzM3IiBzdHlsZT0ic3RvcC1jb2xvcjojOUFDOEVBIi8+Cgk8c3RvcCAgb2Zmc2V0PSIwLjkwNTIiIHN0eWxlPSJzdG9wLWNvbG9yOiM3N0IwREQiLz4KCTxzdG9wICBvZmZzZXQ9IjAuOTc1NCIgc3R5bGU9InN0b3AtY29sb3I6IzREOTRDRiIvPgoJPHN0b3AgIG9mZnNldD0iMSIgc3R5bGU9InN0b3AtY29sb3I6IzNDODlDOSIvPgo8L2xpbmVhckdyYWRpZW50Pgo8cGF0aCBmaWxsPSJ1cmwoI1NWR0lEXzZfKSIgZD0iTTE5LjYyNSwxMC4xMTNjMTAuODM5LDAsMTkuNjI1LTEuODc1LDE5LjYyNS00LjE4OGwtMS4yMjktMmMwLDIuMTY4LTguMjM1LDMuOTI2LTE4LjM5NiwzLjkyNgoJYy05LjQ4MSwwLTE3LjM5Ni0xLjk1OS0xOC4zOTYtMy45MjZMMCw1LjkyNUMwLDguMjM4LDguNzg3LDEwLjExMywxOS42MjUsMTAuMTEzeiIvPgo8bGluZWFyR3JhZGllbnQgaWQ9IlNWR0lEXzdfIiBncmFkaWVudFVuaXRzPSJ1c2VyU3BhY2VPblVzZSIgeDE9IjY0NC4wMjkzIiB5MT0iLTk0My40MDE0IiB4Mj0iNjgwLjgyMjMiIHkyPSItOTQzLjQwMTQiIGdyYWRpZW50VHJhbnNmb3JtPSJtYXRyaXgoMSAwIDAgLTEgLTY0Mi44MDA4IC05MzkuNDc1NikiPgoJPHN0b3AgIG9mZnNldD0iMCIgc3R5bGU9InN0b3AtY29sb3I6IzlDRDdGRiIvPgoJPHN0b3AgIG9mZnNldD0iMSIgc3R5bGU9InN0b3AtY29sb3I6IzNDODlDOSIvPgo8L2xpbmVhckdyYWRpZW50Pgo8ZWxsaXBzZSBmaWxsPSJ1cmwoI1NWR0lEXzdfKSIgY3g9IjE5LjYyNSIgY3k9IjMuOTI2IiByeD0iMTguMzk2IiByeT0iMy45MjYiLz4KPHBhdGggb3BhY2l0eT0iMC4yNCIgZmlsbD0iI0ZGRkZGRiIgZW5hYmxlLWJhY2tncm91bmQ9Im5ldyAgICAiIGQ9Ik0zMS4wNCw0NS45ODJjMCwwLTQuMzU0LDAuNjY0LTcuMjksMC43ODEKCWMtMy4xMjUsMC4xMjUtOC45NTIsMC04Ljk1MiwwbC0yLjM4NC0xMC4yOTJsMC4wNDQtMi4xMDhsLTEuMjUxLTEuMTU0TDkuNzg5LDIzLjAyNGwtMC4wODItMC4xMTlMOS41LDIwLjUyOWwtMS42NS0xLjI1NAoJTDUuMzI5LDguNzkzYzAsMCw0LjIxMywwLjkwMyw3LjIzNCwxLjA3czguMzc1LDAuMjUsOC4zNzUsMC4yNWwzLDkuODc1bC0wLjI1LDEuMzEzbDEuMDYzLDIuMTY4bDIuMzEyLDkuNjQ1bC0wLjUyMSwxLjQxNgoJbDEuNDYsMS44MzRMMzEuMDQsNDUuOTgyeiIvPgo8L3N2Zz4K" parent="1" vertex="1"><mxGeometry x="-212.73950021362256" y="-164.4599983367923" width="39.527000427246094" height="46.887996673583984" as="geometry"/></mxCell><mxCell id="0.4.0" value="DATA_CEMEREM" style="text;html=1;spacing=0;align=center;fontFamily=dialog;fontSize=12;fontStyle=0;=center;fontColor=#000000;verticalAlign=bottom" parent="6" vertex="1"><mxGeometry x="-32.24333572387695" y="50.887996673583984" width="104.013671875" height="18.701171875" as="geometry"/></mxCell><mxCell id="7" style="graphMlID=n5;shape=image;fillColor=#ccccff;strokeColor=#000000;strokeWidth=1.0;image=data:image/svg+xml,PD94bWwgdmVyc2lvbj0iMS4wIiBlbmNvZGluZz0idXRmLTgiPz4KPHN2ZyB2ZXJzaW9uPSIxLjEiCgkgeG1sbnM9Imh0dHA6Ly93d3cudzMub3JnLzIwMDAvc3ZnIiB4bWxuczp4bGluaz0iaHR0cDovL3d3dy53My5vcmcvMTk5OS94bGluayIKCSB4PSIwcHgiIHk9IjBweCIgd2lkdGg9IjQxcHgiIGhlaWdodD0iNDhweCIgdmlld0JveD0iLTAuODc1IC0wLjg4NyA0MSA0OCIgZW5hYmxlLWJhY2tncm91bmQ9Im5ldyAtMC44NzUgLTAuODg3IDQxIDQ4IgoJIHhtbDpzcGFjZT0icHJlc2VydmUiPgo8ZGVmcz4KPC9kZWZzPgo8bGluZWFyR3JhZGllbnQgaWQ9IlNWR0lEXzFfIiBncmFkaWVudFVuaXRzPSJ1c2VyU3BhY2VPblVzZSIgeDE9IjY0Mi44MDA4IiB5MT0iLTk3OS4xNDQ1IiB4Mj0iNjgyLjA1MDgiIHkyPSItOTc5LjE0NDUiIGdyYWRpZW50VHJhbnNmb3JtPSJtYXRyaXgoMSAwIDAgLTEgLTY0Mi44MDA4IC05MzkuNDc1NikiPgoJPHN0b3AgIG9mZnNldD0iMCIgc3R5bGU9InN0b3AtY29sb3I6IzNDODlDOSIvPgoJPHN0b3AgIG9mZnNldD0iMC4xNDgyIiBzdHlsZT0ic3RvcC1jb2xvcjojNjBBNkREIi8+Cgk8c3RvcCAgb2Zmc2V0PSIwLjMxMTMiIHN0eWxlPSJzdG9wLWNvbG9yOiM4MUMxRjAiLz4KCTxzdG9wICBvZmZzZXQ9IjAuNDQ3NiIgc3R5bGU9InN0b3AtY29sb3I6Izk1RDFGQiIvPgoJPHN0b3AgIG9mZnNldD0iMC41Mzk0IiBzdHlsZT0ic3RvcC1jb2xvcjojOUNEN0ZGIi8+Cgk8c3RvcCAgb2Zmc2V0PSIwLjYzNiIgc3R5bGU9InN0b3AtY29sb3I6Izk4RDRGRCIvPgoJPHN0b3AgIG9mZnNldD0iMC43MjkzIiBzdHlsZT0ic3RvcC1jb2xvcjojOERDQUY2Ii8+Cgk8c3RvcCAgb2Zmc2V0PSIwLjgyMTQiIHN0eWxlPSJzdG9wLWNvbG9yOiM3OUJCRUIiLz4KCTxzdG9wICBvZmZzZXQ9IjAuOTEyIiBzdHlsZT0ic3RvcC1jb2xvcjojNUVBNURDIi8+Cgk8c3RvcCAgb2Zmc2V0PSIxIiBzdHlsZT0ic3RvcC1jb2xvcjojM0M4OUM5Ii8+CjwvbGluZWFyR3JhZGllbnQ+CjxwYXRoIGZpbGw9InVybCgjU1ZHSURfMV8pIiBkPSJNMTkuNjI1LDM2Ljc2M0M4Ljc4NywzNi43NjMsMCwzNC44ODgsMCwzMi41NzV2MTBjMCwyLjMxMyw4Ljc4Nyw0LjE4OCwxOS42MjUsNC4xODgKCWMxMC44MzksMCwxOS42MjUtMS44NzUsMTkuNjI1LTQuMTg4di0xMEMzOS4yNSwzNC44ODgsMzAuNDY0LDM2Ljc2MywxOS42MjUsMzYuNzYzeiIvPgo8bGluZWFyR3JhZGllbnQgaWQ9IlNWR0lEXzJfIiBncmFkaWVudFVuaXRzPSJ1c2VyU3BhY2VPblVzZSIgeDE9IjY0Mi44MDA4IiB5MT0iLTk3My4xNDQ1IiB4Mj0iNjgyLjA1MDgiIHkyPSItOTczLjE0NDUiIGdyYWRpZW50VHJhbnNmb3JtPSJtYXRyaXgoMSAwIDAgLTEgLTY0Mi44MDA4IC05MzkuNDc1NikiPgoJPHN0b3AgIG9mZnNldD0iMCIgc3R5bGU9InN0b3AtY29sb3I6IzlDRDdGRiIvPgoJPHN0b3AgIG9mZnNldD0iMC4wMDM5IiBzdHlsZT0ic3RvcC1jb2xvcjojOUREN0ZGIi8+Cgk8c3RvcCAgb2Zmc2V0PSIwLjIyNzMiIHN0eWxlPSJzdG9wLWNvbG9yOiNCREU1RkYiLz4KCTxzdG9wICBvZmZzZXQ9IjAuNDEzOCIgc3R5bGU9InN0b3AtY29sb3I6I0QxRUVGRiIvPgoJPHN0b3AgIG9mZnNldD0iMC41Mzk0IiBzdHlsZT0ic3RvcC1jb2xvcjojRDlGMUZGIi8+Cgk8c3RvcCAgb2Zmc2V0PSIwLjYxNTUiIHN0eWxlPSJzdG9wLWNvbG9yOiNENUVGRkUiLz4KCTxzdG9wICBvZmZzZXQ9IjAuNjg5MSIgc3R5bGU9InN0b3AtY29sb3I6I0M5RTdGQSIvPgoJPHN0b3AgIG9mZnNldD0iMC43NjE3IiBzdHlsZT0ic3RvcC1jb2xvcjojQjZEQUYzIi8+Cgk8c3RvcCAgb2Zmc2V0PSIwLjgzMzciIHN0eWxlPSJzdG9wLWNvbG9yOiM5QUM4RUEiLz4KCTxzdG9wICBvZmZzZXQ9IjAuOTA1MiIgc3R5bGU9InN0b3AtY29sb3I6Izc3QjBERCIvPgoJPHN0b3AgIG9mZnNldD0iMC45NzU0IiBzdHlsZT0ic3RvcC1jb2xvcjojNEQ5NENGIi8+Cgk8c3RvcCAgb2Zmc2V0PSIxIiBzdHlsZT0ic3RvcC1jb2xvcjojM0M4OUM5Ii8+CjwvbGluZWFyR3JhZGllbnQ+CjxwYXRoIGZpbGw9InVybCgjU1ZHSURfMl8pIiBkPSJNMTkuNjI1LDM2Ljc2M2MxMC44MzksMCwxOS42MjUtMS44NzUsMTkuNjI1LTQuMTg4bC0xLjIyOS0yYzAsMi4xNjgtOC4yMzUsMy45MjctMTguMzk2LDMuOTI3CgljLTkuNDgxLDAtMTcuMzk2LTEuOTU5LTE4LjM5Ni0zLjkyN2wtMS4yMjksMkMwLDM0Ljg4OCw4Ljc4NywzNi43NjMsMTkuNjI1LDM2Ljc2M3oiLz4KPHBhdGggZmlsbD0iIzNDODlDOSIgZD0iTTE5LjYyNSwyNi40NjhjMTAuMTYsMCwxOS42MjUsMi43NzUsMTkuNjI1LDIuNzc1Yy0wLjM3NSwyLjcyMS01LjM2Nyw1LjQzOC0xOS41NTQsNS40MzgKCWMtMTIuMTI1LDAtMTguNDY3LTIuNDg0LTE5LjU0MS00LjkxOEMtMC4xMjcsMjkuMTI1LDkuNDY1LDI2LjQ2OCwxOS42MjUsMjYuNDY4eiIvPgo8bGluZWFyR3JhZGllbnQgaWQ9IlNWR0lEXzNfIiBncmFkaWVudFVuaXRzPSJ1c2VyU3BhY2VPblVzZSIgeDE9IjY0Mi44MDA4IiB5MT0iLTk2NS42OTQ4IiB4Mj0iNjgyLjA1MDgiIHkyPSItOTY1LjY5NDgiIGdyYWRpZW50VHJhbnNmb3JtPSJtYXRyaXgoMSAwIDAgLTEgLTY0Mi44MDA4IC05MzkuNDc1NikiPgoJPHN0b3AgIG9mZnNldD0iMCIgc3R5bGU9InN0b3AtY29sb3I6IzNDODlDOSIvPgoJPHN0b3AgIG9mZnNldD0iMC4xNDgyIiBzdHlsZT0ic3RvcC1jb2xvcjojNjBBNkREIi8+Cgk8c3RvcCAgb2Zmc2V0PSIwLjMxMTMiIHN0eWxlPSJzdG9wLWNvbG9yOiM4MUMxRjAiLz4KCTxzdG9wICBvZmZzZXQ9IjAuNDQ3NiIgc3R5bGU9InN0b3AtY29sb3I6Izk1RDFGQiIvPgoJPHN0b3AgIG9mZnNldD0iMC41Mzk0IiBzdHlsZT0ic3RvcC1jb2xvcjojOUNEN0ZGIi8+Cgk8c3RvcCAgb2Zmc2V0PSIwLjYzNiIgc3R5bGU9InN0b3AtY29sb3I6Izk4RDRGRCIvPgoJPHN0b3AgIG9mZnNldD0iMC43MjkzIiBzdHlsZT0ic3RvcC1jb2xvcjojOERDQUY2Ii8+Cgk8c3RvcCAgb2Zmc2V0PSIwLjgyMTQiIHN0eWxlPSJzdG9wLWNvbG9yOiM3OUJCRUIiLz4KCTxzdG9wICBvZmZzZXQ9IjAuOTEyIiBzdHlsZT0ic3RvcC1jb2xvcjojNUVBNURDIi8+Cgk8c3RvcCAgb2Zmc2V0PSIxIiBzdHlsZT0ic3RvcC1jb2xvcjojM0M4OUM5Ii8+CjwvbGluZWFyR3JhZGllbnQ+CjxwYXRoIGZpbGw9InVybCgjU1ZHSURfM18pIiBkPSJNMTkuNjI1LDIzLjMxM0M4Ljc4NywyMy4zMTMsMCwyMS40MzgsMCwxOS4xMjV2MTBjMCwyLjMxMyw4Ljc4Nyw0LjE4OCwxOS42MjUsNC4xODgKCWMxMC44MzksMCwxOS42MjUtMS44NzUsMTkuNjI1LTQuMTg4di0xMEMzOS4yNSwyMS40MzgsMzAuNDY0LDIzLjMxMywxOS42MjUsMjMuMzEzeiIvPgo8bGluZWFyR3JhZGllbnQgaWQ9IlNWR0lEXzRfIiBncmFkaWVudFVuaXRzPSJ1c2VyU3BhY2VPblVzZSIgeDE9IjY0Mi44MDA4IiB5MT0iLTk1OS42OTQ4IiB4Mj0iNjgyLjA1MDgiIHkyPSItOTU5LjY5NDgiIGdyYWRpZW50VHJhbnNmb3JtPSJtYXRyaXgoMSAwIDAgLTEgLTY0Mi44MDA4IC05MzkuNDc1NikiPgoJPHN0b3AgIG9mZnNldD0iMCIgc3R5bGU9InN0b3AtY29sb3I6IzlDRDdGRiIvPgoJPHN0b3AgIG9mZnNldD0iMC4wMDM5IiBzdHlsZT0ic3RvcC1jb2xvcjojOUREN0ZGIi8+Cgk8c3RvcCAgb2Zmc2V0PSIwLjIyNzMiIHN0eWxlPSJzdG9wLWNvbG9yOiNCREU1RkYiLz4KCTxzdG9wICBvZmZzZXQ9IjAuNDEzOCIgc3R5bGU9InN0b3AtY29sb3I6I0QxRUVGRiIvPgoJPHN0b3AgIG9mZnNldD0iMC41Mzk0IiBzdHlsZT0ic3RvcC1jb2xvcjojRDlGMUZGIi8+Cgk8c3RvcCAgb2Zmc2V0PSIwLjYxNTUiIHN0eWxlPSJzdG9wLWNvbG9yOiNENUVGRkUiLz4KCTxzdG9wICBvZmZzZXQ9IjAuNjg5MSIgc3R5bGU9InN0b3AtY29sb3I6I0M5RTdGQSIvPgoJPHN0b3AgIG9mZnNldD0iMC43NjE3IiBzdHlsZT0ic3RvcC1jb2xvcjojQjZEQUYzIi8+Cgk8c3RvcCAgb2Zmc2V0PSIwLjgzMzciIHN0eWxlPSJzdG9wLWNvbG9yOiM5QUM4RUEiLz4KCTxzdG9wICBvZmZzZXQ9IjAuOTA1MiIgc3R5bGU9InN0b3AtY29sb3I6Izc3QjBERCIvPgoJPHN0b3AgIG9mZnNldD0iMC45NzU0IiBzdHlsZT0ic3RvcC1jb2xvcjojNEQ5NENGIi8+Cgk8c3RvcCAgb2Zmc2V0PSIxIiBzdHlsZT0ic3RvcC1jb2xvcjojM0M4OUM5Ii8+CjwvbGluZWFyR3JhZGllbnQ+CjxwYXRoIGZpbGw9InVybCgjU1ZHSURfNF8pIiBkPSJNMTkuNjI1LDIzLjMxM2MxMC44MzksMCwxOS42MjUtMS44NzUsMTkuNjI1LTQuMTg4bC0xLjIyOS0yYzAsMi4xNjgtOC4yMzUsMy45MjYtMTguMzk2LDMuOTI2CgljLTkuNDgxLDAtMTcuMzk2LTEuOTU5LTE4LjM5Ni0zLjkyNmwtMS4yMjksMkMwLDIxLjQzOCw4Ljc4NywyMy4zMTMsMTkuNjI1LDIzLjMxM3oiLz4KPHBhdGggZmlsbD0iIzNDODlDOSIgZD0iTTE5LjQ3NiwxMy4wMTljMTAuMTYxLDAsMTkuNjI1LDIuNzc1LDE5LjYyNSwyLjc3NWMtMC4zNzUsMi43MjEtNS4zNjcsNS40MzgtMTkuNTU1LDUuNDM4CgljLTEyLjEyNSwwLTE4LjQ2Ny0yLjQ4NS0xOS41NDEtNC45MThDLTAuMjc3LDE1LjY3NCw5LjMxNiwxMy4wMTksMTkuNDc2LDEzLjAxOXoiLz4KPGxpbmVhckdyYWRpZW50IGlkPSJTVkdJRF81XyIgZ3JhZGllbnRVbml0cz0idXNlclNwYWNlT25Vc2UiIHgxPSI2NDIuODAwOCIgeTE9Ii05NTIuNDk0NiIgeDI9IjY4Mi4wNTA4IiB5Mj0iLTk1Mi40OTQ2IiBncmFkaWVudFRyYW5zZm9ybT0ibWF0cml4KDEgMCAwIC0xIC02NDIuODAwOCAtOTM5LjQ3NTYpIj4KCTxzdG9wICBvZmZzZXQ9IjAiIHN0eWxlPSJzdG9wLWNvbG9yOiMzQzg5QzkiLz4KCTxzdG9wICBvZmZzZXQ9IjAuMTQ4MiIgc3R5bGU9InN0b3AtY29sb3I6IzYwQTZERCIvPgoJPHN0b3AgIG9mZnNldD0iMC4zMTEzIiBzdHlsZT0ic3RvcC1jb2xvcjojODFDMUYwIi8+Cgk8c3RvcCAgb2Zmc2V0PSIwLjQ0NzYiIHN0eWxlPSJzdG9wLWNvbG9yOiM5NUQxRkIiLz4KCTxzdG9wICBvZmZzZXQ9IjAuNTM5NCIgc3R5bGU9InN0b3AtY29sb3I6IzlDRDdGRiIvPgoJPHN0b3AgIG9mZnNldD0iMC42MzYiIHN0eWxlPSJzdG9wLWNvbG9yOiM5OEQ0RkQiLz4KCTxzdG9wICBvZmZzZXQ9IjAuNzI5MyIgc3R5bGU9InN0b3AtY29sb3I6IzhEQ0FGNiIvPgoJPHN0b3AgIG9mZnNldD0iMC44MjE0IiBzdHlsZT0ic3RvcC1jb2xvcjojNzlCQkVCIi8+Cgk8c3RvcCAgb2Zmc2V0PSIwLjkxMiIgc3R5bGU9InN0b3AtY29sb3I6IzVFQTVEQyIvPgoJPHN0b3AgIG9mZnNldD0iMSIgc3R5bGU9InN0b3AtY29sb3I6IzNDODlDOSIvPgo8L2xpbmVhckdyYWRpZW50Pgo8cGF0aCBmaWxsPSJ1cmwoI1NWR0lEXzVfKSIgZD0iTTE5LjYyNSwxMC4xMTNDOC43ODcsMTAuMTEzLDAsOC4yMzgsMCw1LjkyNXYxMGMwLDIuMzEzLDguNzg3LDQuMTg4LDE5LjYyNSw0LjE4OAoJYzEwLjgzOSwwLDE5LjYyNS0xLjg3NSwxOS42MjUtNC4xODh2LTEwQzM5LjI1LDguMjM4LDMwLjQ2NCwxMC4xMTMsMTkuNjI1LDEwLjExM3oiLz4KPGxpbmVhckdyYWRpZW50IGlkPSJTVkdJRF82XyIgZ3JhZGllbnRVbml0cz0idXNlclNwYWNlT25Vc2UiIHgxPSI2NDIuODAwOCIgeTE9Ii05NDYuNDk0NiIgeDI9IjY4Mi4wNTA4IiB5Mj0iLTk0Ni40OTQ2IiBncmFkaWVudFRyYW5zZm9ybT0ibWF0cml4KDEgMCAwIC0xIC02NDIuODAwOCAtOTM5LjQ3NTYpIj4KCTxzdG9wICBvZmZzZXQ9IjAiIHN0eWxlPSJzdG9wLWNvbG9yOiM5Q0Q3RkYiLz4KCTxzdG9wICBvZmZzZXQ9IjAuMDAzOSIgc3R5bGU9InN0b3AtY29sb3I6IzlERDdGRiIvPgoJPHN0b3AgIG9mZnNldD0iMC4yMjczIiBzdHlsZT0ic3RvcC1jb2xvcjojQkRFNUZGIi8+Cgk8c3RvcCAgb2Zmc2V0PSIwLjQxMzgiIHN0eWxlPSJzdG9wLWNvbG9yOiNEMUVFRkYiLz4KCTxzdG9wICBvZmZzZXQ9IjAuNTM5NCIgc3R5bGU9InN0b3AtY29sb3I6I0Q5RjFGRiIvPgoJPHN0b3AgIG9mZnNldD0iMC42MTU1IiBzdHlsZT0ic3RvcC1jb2xvcjojRDVFRkZFIi8+Cgk8c3RvcCAgb2Zmc2V0PSIwLjY4OTEiIHN0eWxlPSJzdG9wLWNvbG9yOiNDOUU3RkEiLz4KCTxzdG9wICBvZmZzZXQ9IjAuNzYxNyIgc3R5bGU9InN0b3AtY29sb3I6I0I2REFGMyIvPgoJPHN0b3AgIG9mZnNldD0iMC44MzM3IiBzdHlsZT0ic3RvcC1jb2xvcjojOUFDOEVBIi8+Cgk8c3RvcCAgb2Zmc2V0PSIwLjkwNTIiIHN0eWxlPSJzdG9wLWNvbG9yOiM3N0IwREQiLz4KCTxzdG9wICBvZmZzZXQ9IjAuOTc1NCIgc3R5bGU9InN0b3AtY29sb3I6IzREOTRDRiIvPgoJPHN0b3AgIG9mZnNldD0iMSIgc3R5bGU9InN0b3AtY29sb3I6IzNDODlDOSIvPgo8L2xpbmVhckdyYWRpZW50Pgo8cGF0aCBmaWxsPSJ1cmwoI1NWR0lEXzZfKSIgZD0iTTE5LjYyNSwxMC4xMTNjMTAuODM5LDAsMTkuNjI1LTEuODc1LDE5LjYyNS00LjE4OGwtMS4yMjktMmMwLDIuMTY4LTguMjM1LDMuOTI2LTE4LjM5NiwzLjkyNgoJYy05LjQ4MSwwLTE3LjM5Ni0xLjk1OS0xOC4zOTYtMy45MjZMMCw1LjkyNUMwLDguMjM4LDguNzg3LDEwLjExMywxOS42MjUsMTAuMTEzeiIvPgo8bGluZWFyR3JhZGllbnQgaWQ9IlNWR0lEXzdfIiBncmFkaWVudFVuaXRzPSJ1c2VyU3BhY2VPblVzZSIgeDE9IjY0NC4wMjkzIiB5MT0iLTk0My40MDE0IiB4Mj0iNjgwLjgyMjMiIHkyPSItOTQzLjQwMTQiIGdyYWRpZW50VHJhbnNmb3JtPSJtYXRyaXgoMSAwIDAgLTEgLTY0Mi44MDA4IC05MzkuNDc1NikiPgoJPHN0b3AgIG9mZnNldD0iMCIgc3R5bGU9InN0b3AtY29sb3I6IzlDRDdGRiIvPgoJPHN0b3AgIG9mZnNldD0iMSIgc3R5bGU9InN0b3AtY29sb3I6IzNDODlDOSIvPgo8L2xpbmVhckdyYWRpZW50Pgo8ZWxsaXBzZSBmaWxsPSJ1cmwoI1NWR0lEXzdfKSIgY3g9IjE5LjYyNSIgY3k9IjMuOTI2IiByeD0iMTguMzk2IiByeT0iMy45MjYiLz4KPHBhdGggb3BhY2l0eT0iMC4yNCIgZmlsbD0iI0ZGRkZGRiIgZW5hYmxlLWJhY2tncm91bmQ9Im5ldyAgICAiIGQ9Ik0zMS4wNCw0NS45ODJjMCwwLTQuMzU0LDAuNjY0LTcuMjksMC43ODEKCWMtMy4xMjUsMC4xMjUtOC45NTIsMC04Ljk1MiwwbC0yLjM4NC0xMC4yOTJsMC4wNDQtMi4xMDhsLTEuMjUxLTEuMTU0TDkuNzg5LDIzLjAyNGwtMC4wODItMC4xMTlMOS41LDIwLjUyOWwtMS42NS0xLjI1NAoJTDUuMzI5LDguNzkzYzAsMCw0LjIxMywwLjkwMyw3LjIzNCwxLjA3czguMzc1LDAuMjUsOC4zNzUsMC4yNWwzLDkuODc1bC0wLjI1LDEuMzEzbDEuMDYzLDIuMTY4bDIuMzEyLDkuNjQ1bC0wLjUyMSwxLjQxNgoJbDEuNDYsMS44MzRMMzEuMDQsNDUuOTgyeiIvPgo8L3N2Zz4K" parent="1" vertex="1"><mxGeometry x="203.43299957275474" y="-164.4599983367923" width="39.527000427246094" height="46.887996673583984" as="geometry"/></mxCell><mxCell id="0.5.0" value="MESOCENTRE SCRATCH" style="text;html=1;spacing=0;align=center;fontFamily=dialog;fontSize=12;fontStyle=0;=center;fontColor=#000000;verticalAlign=bottom" parent="7" vertex="1"><mxGeometry x="-55.24138259887695" y="50.887996673583984" width="150.009765625" height="18.701171875" as="geometry"/></mxCell><mxCell id="8" style="graphMlID=n6;shape=step;perimeter=stepPerimeter;fillColor=#ff9900;strokeColor=#000000;strokeWidth=1.0" parent="1" vertex="1"><mxGeometry x="24.80000000000092" y="-3.9199999999999307" width="154.96000000000004" height="23.359999999999985" as="geometry"/></mxCell><mxCell id="0.6.0" value="dicom2mesocentre.py" style="text;html=1;spacing=0;align=center;fontFamily=dialog;fontSize=12;fontStyle=0;=center;fontColor=#000000;verticalAlign=bottom" parent="8" vertex="1"><mxGeometry x="16.786640625000018" y="2.3294140624999926" width="121.38671875" height="18.701171875" as="geometry"/></mxCell><mxCell id="9" style="graphMlID=n7;gradientDirection=east;shape=ext;fillColor=#e8eef7;gradientColor=#b7c9e3;strokeColor=#000000;strokeWidth=1.0;shadow=1" parent="1" vertex="1"><mxGeometry x="252.23199999999997" y="-69.70399999999998" width="57.599999999999994" height="23.359999999999985" as="geometry"/></mxCell><mxCell id="0.7.0" value="bio7/" style="text;html=1;spacing=0;align=center;fontFamily=dialog;fontSize=12;fontStyle=0;=center;fontColor=#000000;verticalAlign=bottom" parent="9" vertex="1"><mxGeometry x="13.789257812500011" y="2.3294140624999926" width="30.021484375" height="18.701171875" as="geometry"/></mxCell><mxCell id="10" style="graphMlID=n8;gradientDirection=east;shape=ext;fillColor=#e8eef7;gradientColor=#b7c9e3;strokeColor=#000000;strokeWidth=1.0;shadow=1" parent="1" vertex="1"><mxGeometry x="309.832" y="-25.20799999999994" width="76.80000000000004" height="23.359999999999985" as="geometry"/></mxCell><mxCell id="0.8.0" value="sourcedata/" style="text;html=1;spacing=0;align=center;fontFamily=dialog;fontSize=12;fontStyle=0;=center;fontColor=#000000;verticalAlign=bottom" parent="10" vertex="1"><mxGeometry x="5.046484375000034" y="2.3294140624999926" width="66.70703125" height="18.701171875" as="geometry"/></mxCell><mxCell id="11" style="graphMlID=n9;gradientDirection=east;shape=ext;fillColor=#e8eef7;gradientColor=#b7c9e3;strokeColor=#000000;strokeWidth=1.0;shadow=1" parent="1" vertex="1"><mxGeometry x="386.63200000000006" y="28.152000000000044" width="57.599999999999994" height="23.359999999999985" as="geometry"/></mxCell><mxCell id="0.9.0" value="dicoms/" style="text;html=1;spacing=0;align=center;fontFamily=dialog;fontSize=12;fontStyle=0;=center;fontColor=#000000;verticalAlign=bottom" parent="11" vertex="1"><mxGeometry x="6.128125000000011" y="2.3294140624999926" width="45.34375" height="18.701171875" as="geometry"/></mxCell><mxCell id="12" style="graphMlID=n10;gradientDirection=east;shape=ext;fillColor=#e8eef7;gradientColor=#b7c9e3;strokeColor=#000000;strokeWidth=1.0;shadow=1" parent="1" vertex="1"><mxGeometry x="444.2320000000001" y="81.51200000000003" width="57.599999999999994" height="23.359999999999985" as="geometry"/></mxCell><mxCell id="0.10.0" value="876-1/" style="text;html=1;spacing=0;align=center;fontFamily=dialog;fontSize=12;fontStyle=0;=center;fontColor=#000000;verticalAlign=bottom" parent="12" vertex="1"><mxGeometry x="9.787304687500011" y="2.3294140624999926" width="38.025390625" height="18.701171875" as="geometry"/></mxCell><mxCell id="13" style="graphMlID=n11;gradientDirection=east;shape=ext;fillColor=#e8eef7;gradientColor=#b7c9e3;strokeColor=#000000;strokeWidth=1.0;shadow=1" parent="1" vertex="1"><mxGeometry x="444.2320000000001" y="110.82000000000005" width="57.599999999999994" height="23.359999999999985" as="geometry"/></mxCell><mxCell id="0.11.0" value="876-2/" style="text;html=1;spacing=0;align=center;fontFamily=dialog;fontSize=12;fontStyle=0;=center;fontColor=#000000;verticalAlign=bottom" parent="13" vertex="1"><mxGeometry x="9.787304687500011" y="2.329414062500007" width="38.025390625" height="18.701171875" as="geometry"/></mxCell><mxCell id="14" style="graphMlID=n12;gradientDirection=east;shape=ext;fillColor=#e8eef7;gradientColor=#b7c9e3;strokeColor=#000000;strokeWidth=1.0;shadow=1" parent="1" vertex="1"><mxGeometry x="444.2320000000001" y="140.12800000000007" width="57.599999999999994" height="23.359999999999985" as="geometry"/></mxCell><mxCell id="0.12.0" value="876-3/" style="text;html=1;spacing=0;align=center;fontFamily=dialog;fontSize=12;fontStyle=0;=center;fontColor=#000000;verticalAlign=bottom" parent="14" vertex="1"><mxGeometry x="9.787304687500011" y="2.3294140624999784" width="38.025390625" height="18.701171875" as="geometry"/></mxCell><mxCell id="15" style="graphMlID=n13;gradientDirection=east;shape=ext;fillColor=#e8eef7;gradientColor=#b7c9e3;strokeColor=#000000;strokeWidth=1.0;shadow=1" parent="1" vertex="1"><mxGeometry x="386.63200000000006" y="388.6669733520337" width="57.599999999999994" height="23.359999999999985" as="geometry"/></mxCell><mxCell id="0.13.0" value="tarfiles/" style="text;html=1;spacing=0;align=center;fontFamily=dialog;fontSize=12;fontStyle=0;=center;fontColor=#000000;verticalAlign=bottom" parent="15" vertex="1"><mxGeometry x="7.461132812500011" y="2.329414062500007" width="42.677734375" height="18.701171875" as="geometry"/></mxCell><mxCell id="16" style="graphMlID=n14;gradientDirection=east;shape=ext;fillColor=#e8eef7;gradientColor=#33cccc;strokeColor=#000000;strokeWidth=1.0;shadow=1" parent="1" vertex="1"><mxGeometry x="444.2320000000001" y="442.02697335203374" width="70.39999999999995" height="23.359999999999985" as="geometry"/></mxCell><mxCell id="0.14.0" value="8761_01/" style="text;html=1;spacing=0;align=center;fontFamily=dialog;fontSize=12;fontStyle=0;=center;fontColor=#000000;verticalAlign=bottom" parent="16" vertex="1"><mxGeometry x="8.174609374999989" y="2.329414062500007" width="54.05078125" height="18.701171875" as="geometry"/></mxCell><mxCell id="17" style="graphMlID=n15;gradientDirection=east;shape=ext;fillColor=#e8eef7;gradientColor=#33cccc;strokeColor=#000000;strokeWidth=1.0;shadow=1" parent="1" vertex="1"><mxGeometry x="444.2320000000001" y="471.3349733520337" width="70.39999999999995" height="23.359999999999985" as="geometry"/></mxCell><mxCell id="0.15.0" value="8761_02/" style="text;html=1;spacing=0;align=center;fontFamily=dialog;fontSize=12;fontStyle=0;=center;fontColor=#000000;verticalAlign=bottom" parent="17" vertex="1"><mxGeometry x="8.174609374999989" y="2.329414062500007" width="54.05078125" height="18.701171875" as="geometry"/></mxCell><mxCell id="18" style="graphMlID=n16;gradientDirection=east;shape=ext;fillColor=#e8eef7;gradientColor=#33cccc;strokeColor=#000000;strokeWidth=1.0;shadow=1" parent="1" vertex="1"><mxGeometry x="444.2320000000001" y="500.6429733520337" width="70.39999999999995" height="23.359999999999985" as="geometry"/></mxCell><mxCell id="0.16.0" value="8762_01/" style="text;html=1;spacing=0;align=center;fontFamily=dialog;fontSize=12;fontStyle=0;=center;fontColor=#000000;verticalAlign=bottom" parent="18" vertex="1"><mxGeometry x="8.174609374999989" y="2.329414062500007" width="54.05078125" height="18.701171875" as="geometry"/></mxCell><mxCell id="19" style="graphMlID=n17;gradientDirection=east;shape=ext;fillColor=#e8eef7;gradientColor=#33cccc;strokeColor=#000000;strokeWidth=1.0;shadow=1" parent="1" vertex="1"><mxGeometry x="444.2320000000001" y="529.9509733520338" width="70.39999999999995" height="23.359999999999985" as="geometry"/></mxCell><mxCell id="0.17.0" value="8763_01/" style="text;html=1;spacing=0;align=center;fontFamily=dialog;fontSize=12;fontStyle=0;=center;fontColor=#000000;verticalAlign=bottom" parent="19" vertex="1"><mxGeometry x="8.174609374999989" y="2.32941406249995" width="54.05078125" height="18.701171875" as="geometry"/></mxCell><mxCell id="20" style="graphMlID=n18;gradientDirection=east;shape=ext;fillColor=#e8eef7;gradientColor=#33cccc;strokeColor=#000000;strokeWidth=1.0;shadow=1" parent="1" vertex="1"><mxGeometry x="444.2320000000001" y="559.2589733520336" width="70.39999999999995" height="23.359999999999985" as="geometry"/></mxCell><mxCell id="0.18.0" value="8763_01/" style="text;html=1;spacing=0;align=center;fontFamily=dialog;fontSize=12;fontStyle=0;=center;fontColor=#000000;verticalAlign=bottom" parent="20" vertex="1"><mxGeometry x="8.174609374999989" y="2.32941406249995" width="54.05078125" height="18.701171875" as="geometry"/></mxCell><mxCell id="21" style="graphMlID=n19;shape=step;perimeter=stepPerimeter;fillColor=#ff9900;strokeColor=#000000;strokeWidth=1.0" parent="1" vertex="1"><mxGeometry x="623.8580645161311" y="380.4589733520337" width="96.96000000000004" height="23.359999999999985" as="geometry"/></mxCell><mxCell id="0.19.0" value="dicom2tar.py" style="text;html=1;spacing=0;align=center;fontFamily=dialog;fontSize=12;fontStyle=0;=center;fontColor=#000000;verticalAlign=bottom" parent="21" vertex="1"><mxGeometry x="12.132343750000018" y="2.329414062500007" width="72.6953125" height="18.701171875" as="geometry"/></mxCell><mxCell id="22" style="graphMlID=n20;gradientDirection=east;shape=ext;fillColor=#e8eef7;gradientColor=#b7c9e3;strokeColor=#000000;strokeWidth=1.0;shadow=1" parent="1" vertex="1"><mxGeometry x="386.63200000000006" y="643.8169733520338" width="57.599999999999994" height="23.359999999999985" as="geometry"/></mxCell><mxCell id="0.20.0" value="bids/" style="text;html=1;spacing=0;align=center;fontFamily=dialog;fontSize=12;fontStyle=0;=center;fontColor=#000000;verticalAlign=bottom" parent="22" vertex="1"><mxGeometry x="14.126171875000011" y="2.32941406249995" width="29.34765625" height="18.701171875" as="geometry"/></mxCell><mxCell id="23" style="graphMlID=n21;gradientDirection=east;shape=ext;fillColor=#e8eef7;gradientColor=#0000ff;strokeColor=#000000;strokeWidth=1.0;shadow=1" parent="1" vertex="1"><mxGeometry x="444.2320000000001" y="697.1769733520338" width="70.39999999999995" height="23.359999999999985" as="geometry"/></mxCell><mxCell id="0.21.0" value="sub-8761/" style="text;html=1;spacing=0;align=center;fontFamily=dialog;fontSize=12;fontStyle=0;=center;fontColor=#000000;verticalAlign=bottom" parent="23" vertex="1"><mxGeometry x="6.513476562499989" y="2.32941406249995" width="57.373046875" height="18.701171875" as="geometry"/></mxCell><mxCell id="24" style="graphMlID=n22;gradientDirection=east;shape=ext;fillColor=#e8eef7;gradientColor=#0000ff;strokeColor=#000000;strokeWidth=1.0;shadow=1" parent="1" vertex="1"><mxGeometry x="444.2320000000001" y="726.4849733520338" width="70.39999999999995" height="23.359999999999985" as="geometry"/></mxCell><mxCell id="0.22.0" value="sub-8762/" style="text;html=1;spacing=0;align=center;fontFamily=dialog;fontSize=12;fontStyle=0;=center;fontColor=#000000;verticalAlign=bottom" parent="24" vertex="1"><mxGeometry x="6.513476562499989" y="2.32941406249995" width="57.373046875" height="18.701171875" as="geometry"/></mxCell><mxCell id="25" style="graphMlID=n23;gradientDirection=east;shape=ext;fillColor=#e8eef7;gradientColor=#0000ff;strokeColor=#000000;strokeWidth=1.0;shadow=1" parent="1" vertex="1"><mxGeometry x="444.2320000000001" y="755.7929733520338" width="70.39999999999995" height="23.359999999999985" as="geometry"/></mxCell><mxCell id="0.23.0" value="sub-8763/" style="text;html=1;spacing=0;align=center;fontFamily=dialog;fontSize=12;fontStyle=0;=center;fontColor=#000000;verticalAlign=bottom" parent="25" vertex="1"><mxGeometry x="6.513476562499989" y="2.32941406249995" width="57.373046875" height="18.701171875" as="geometry"/></mxCell><mxCell id="26" style="graphMlID=n24;shape=step;perimeter=stepPerimeter;flipH=1;fillColor=#ff9900;strokeColor=#000000;strokeWidth=1.0" parent="1" vertex="1"><mxGeometry x="121.57199999999995" y="568.6549733520338" width="96.96000000000004" height="23.359999999999985" as="geometry"/></mxCell><mxCell id="0.24.0" value="tar2bids.py" style="text;html=1;spacing=0;align=center;fontFamily=dialog;fontSize=12;fontStyle=0;=center;fontColor=#000000;verticalAlign=bottom" parent="26" vertex="1"><mxGeometry x="17.130390625000018" y="2.32941406249995" width="62.69921875" height="18.701171875" as="geometry"/></mxCell><mxCell id="27" style="graphMlID=n25;shape=step;perimeter=stepPerimeter;fillColor=#ff9900;strokeColor=#000000;strokeWidth=1.0" parent="1" vertex="1"><mxGeometry x="79.07199999999995" y="600.2969733520339" width="181.96000000000004" height="23.359999999999985" as="geometry"/></mxCell><mxCell id="0.25.0" value="bids_heuristic_file_bio7.py" style="text;html=1;spacing=0;align=center;fontFamily=dialog;fontSize=12;fontStyle=0;=center;fontColor=#000000;verticalAlign=bottom" parent="27" vertex="1"><mxGeometry x="18.603046875000018" y="2.32941406249995" width="144.75390625" height="18.701171875" as="geometry"/></mxCell><mxCell id="28" style="graphMlID=n26;shape=step;perimeter=stepPerimeter;flipH=1;fillColor=#ff6600;strokeColor=#000000;strokeWidth=1.0" parent="1" vertex="1"><mxGeometry x="313.03200000000004" y="741.1389733520338" width="96.96000000000004" height="23.359999999999985" as="geometry"/></mxCell><mxCell id="0.26.0" value="json_editor,py" style="text;html=1;spacing=0;align=center;fontFamily=dialog;fontSize=12;fontStyle=0;=center;fontColor=#000000;verticalAlign=bottom" parent="28" vertex="1"><mxGeometry x="9.123554687500018" y="2.32941406249995" width="78.712890625" height="18.701171875" as="geometry"/></mxCell><mxCell id="29" style="graphMlID=n27;shape=step;perimeter=stepPerimeter;flipH=1;fillColor=#ff6600;strokeColor=#000000;strokeWidth=1.0" parent="1" vertex="1"><mxGeometry x="515.8320000000001" y="33.152000000000044" width="122.96000000000004" height="23.359999999999985" as="geometry"/></mxCell><mxCell id="0.27.0" value="dicom_editor,py" style="text;html=1;spacing=0;align=center;fontFamily=dialog;fontSize=12;fontStyle=0;=center;fontColor=#000000;verticalAlign=bottom" parent="29" vertex="1"><mxGeometry x="17.125507812500018" y="2.3294140624999926" width="88.708984375" height="18.701171875" as="geometry"/></mxCell><mxCell id="30" style="graphMlID=n28;gradientDirection=east;shape=ext;fillColor=#e8eef7;gradientColor=#b7c9e3;strokeColor=#000000;strokeWidth=1.0;shadow=1" parent="1" vertex="1"><mxGeometry x="386.63200000000006" y="186.39689200561014" width="57.599999999999994" height="23.359999999999985" as="geometry"/></mxCell><mxCell id="0.28.0" value="logs/" style="text;html=1;spacing=0;align=center;fontFamily=dialog;fontSize=12;fontStyle=0;=center;fontColor=#000000;verticalAlign=bottom" parent="30" vertex="1"><mxGeometry x="14.126171875000011" y="2.329414062500007" width="29.34765625" height="18.701171875" as="geometry"/></mxCell><mxCell id="31" style="graphMlID=n29;gradientDirection=east;shape=ext;fillColor=#e8eef7;gradientColor=#b7c9e3;strokeColor=#000000;strokeWidth=1.0;shadow=1" parent="1" vertex="1"><mxGeometry x="444.2320000000001" y="239.7568920056101" width="147.32185133239838" height="23.359999999999985" as="geometry"/></mxCell><mxCell id="0.29.0" value="sub-8761_dicom_log.csv" style="text;html=1;spacing=0;align=center;fontFamily=dialog;fontSize=12;fontStyle=0;=center;fontColor=#000000;verticalAlign=bottom" parent="31" vertex="1"><mxGeometry x="5.288855353699205" y="2.329414062500007" width="136.744140625" height="18.701171875" as="geometry"/></mxCell><mxCell id="32" style="graphMlID=n30;gradientDirection=east;shape=ext;fillColor=#e8eef7;gradientColor=#b7c9e3;strokeColor=#000000;strokeWidth=1.0;shadow=1" parent="1" vertex="1"><mxGeometry x="444.2320000000001" y="269.06489200561015" width="147.32185133239838" height="23.359999999999985" as="geometry"/></mxCell><mxCell id="0.30.0" value="sub-8762_dicom_log.csv" style="text;html=1;spacing=0;align=center;fontFamily=dialog;fontSize=12;fontStyle=0;=center;fontColor=#000000;verticalAlign=bottom" parent="32" vertex="1"><mxGeometry x="5.288855353699205" y="2.329414062500007" width="136.744140625" height="18.701171875" as="geometry"/></mxCell><mxCell id="33" style="graphMlID=n31;gradientDirection=east;shape=ext;fillColor=#e8eef7;gradientColor=#b7c9e3;strokeColor=#000000;strokeWidth=1.0;shadow=1" parent="1" vertex="1"><mxGeometry x="444.2320000000001" y="327.0989733520337" width="160.91600000000082" height="23.359999999999985" as="geometry"/></mxCell><mxCell id="0.31.0" value="sub-8761_dicom2tar_log.csv" style="text;html=1;spacing=0;align=center;fontFamily=dialog;fontSize=12;fontStyle=0;=center;fontColor=#000000;verticalAlign=bottom" parent="33" vertex="1"><mxGeometry x="1.7470625000004247" y="2.329414062500007" width="157.421875" height="18.701171875" as="geometry"/></mxCell><mxCell id="34" style="graphMlID=n32;shape=step;perimeter=stepPerimeter;flipH=1;fillColor=#ff6600;strokeColor=#000000;strokeWidth=1.0" parent="1" vertex="1"><mxGeometry x="539.6603085554015" y="-3.9199999999999307" width="191.98524544179554" height="23.359999999999985" as="geometry"/></mxCell><mxCell id="0.32.0" value="dicom_editor_extrascript,py" style="text;html=1;spacing=0;align=center;fontFamily=dialog;fontSize=12;fontStyle=0;=center;fontColor=#000000;verticalAlign=bottom" parent="34" vertex="1"><mxGeometry x="20.62738834589777" y="2.3294140624999926" width="150.73046875" height="18.701171875" as="geometry"/></mxCell><mxCell id="35" style="graphMlID=n33;gradientDirection=east;shape=ext;fillColor=#e8eef7;gradientColor=#0000ff;strokeColor=#000000;strokeWidth=1.0;shadow=1" parent="1" vertex="1"><mxGeometry x="313.03200000000004" y="817.4310855539974" width="70.39999999999995" height="23.359999999999985" as="geometry"/></mxCell><mxCell id="0.33.0" value="sub-8761/" style="text;html=1;spacing=0;align=center;fontFamily=dialog;fontSize=12;fontStyle=0;=center;fontColor=#000000;verticalAlign=bottom" parent="35" vertex="1"><mxGeometry x="6.513476562499989" y="2.32941406249995" width="57.373046875" height="18.701171875" as="geometry"/></mxCell><mxCell id="36" style="graphMlID=n34;gradientDirection=east;shape=ext;fillColor=#e8eef7;gradientColor=#0000ff;strokeColor=#000000;strokeWidth=1.0;shadow=1" parent="1" vertex="1"><mxGeometry x="313.03200000000004" y="846.7390855539974" width="70.39999999999995" height="23.359999999999985" as="geometry"/></mxCell><mxCell id="0.34.0" value="sub-8762/" style="text;html=1;spacing=0;align=center;fontFamily=dialog;fontSize=12;fontStyle=0;=center;fontColor=#000000;verticalAlign=bottom" parent="36" vertex="1"><mxGeometry x="6.513476562499989" y="2.32941406249995" width="57.373046875" height="18.701171875" as="geometry"/></mxCell><mxCell id="37" style="graphMlID=n35;gradientDirection=east;shape=ext;fillColor=#e8eef7;gradientColor=#0000ff;strokeColor=#000000;strokeWidth=1.0;shadow=1" parent="1" vertex="1"><mxGeometry x="313.03200000000004" y="876.0470855539974" width="70.39999999999995" height="23.359999999999985" as="geometry"/></mxCell><mxCell id="0.35.0" value="sub-8763/" style="text;html=1;spacing=0;align=center;fontFamily=dialog;fontSize=12;fontStyle=0;=center;fontColor=#000000;verticalAlign=bottom" parent="37" vertex="1"><mxGeometry x="6.513476562499989" y="2.32941406249995" width="57.373046875" height="18.701171875" as="geometry"/></mxCell><mxCell id="38" style="graphMlID=n36;shape=step;perimeter=stepPerimeter;fillColor=#99cc00;strokeColor=#000000;strokeWidth=1.0" parent="1" vertex="1"><mxGeometry x="-115.11443478260867" y="327.0989733520337" width="160.91600000000082" height="23.359999999999985" as="geometry"/></mxCell><mxCell id="0.36.0" value="change_acces_rights.py" style="text;html=1;spacing=0;align=center;fontFamily=dialog;fontSize=12;fontStyle=0;=center;fontColor=#000000;verticalAlign=bottom" parent="38" vertex="1"><mxGeometry x="13.74999218750041" y="2.329414062500007" width="133.416015625" height="18.701171875" as="geometry"/></mxCell><mxCell id="39" value="" style="graphMlID=e0;rounded=0;endArrow=oval;strokeColor=#000000;strokeWidth=1.0;startArrow=none;startFill=1;endFill=0" parent="1" source="5" target="2" edge="1"><mxGeometry relative="1" as="geometry"><Array as="points"><mxPoint x="-135.228" y="-21.54799999999996"/></Array></mxGeometry></mxCell><mxCell id="40" value="" style="graphMlID=e1;rounded=0;endArrow=oval;strokeColor=#000000;strokeWidth=1.0;startArrow=none;startFill=1;endFill=0" parent="1" source="5" target="3" edge="1"><mxGeometry relative="1" as="geometry"><Array as="points"><mxPoint x="-135.228" y="7.760000000000062"/></Array></mxGeometry></mxCell><mxCell id="41" value="" style="graphMlID=e2;rounded=0;endArrow=oval;strokeColor=#000000;strokeWidth=1.0;startArrow=none;startFill=1;endFill=0" parent="1" source="5" target="4" edge="1"><mxGeometry relative="1" as="geometry"><Array as="points"><mxPoint x="-135.228" y="37.06800000000008"/></Array></mxGeometry></mxCell><mxCell id="42" value="" style="graphMlID=e3;rounded=0;endArrow=oval;strokeColor=#000000;strokeWidth=1.0;startArrow=none;startFill=1;endFill=0;exitX=0.5;exitY=1.591963906166316" parent="1" source="6" target="5" edge="1"><mxGeometry relative="1" as="geometry"><Array as="points"><mxPoint x="-192.97599999999952" y="-58.02399999999999"/></Array></mxGeometry></mxCell><mxCell id="43" value="" style="graphMlID=e4;rounded=0;endArrow=oval;strokeColor=#000000;strokeWidth=1.0;startArrow=none;startFill=1;endFill=0;exitX=0.5;exitY=1.6404198045024472" parent="1" source="7" target="9" edge="1"><mxGeometry relative="1" as="geometry"><Array as="points"><mxPoint x="223.19649978637779" y="-58.02399999999999"/></Array></mxGeometry></mxCell><mxCell id="44" value="" style="graphMlID=e5;rounded=0;endArrow=oval;strokeColor=#000000;strokeWidth=1.0;startArrow=none;startFill=1;endFill=0" parent="1" source="9" target="10" edge="1"><mxGeometry relative="1" as="geometry"><Array as="points"><mxPoint x="281.032" y="-13.527999999999949"/></Array></mxGeometry></mxCell><mxCell id="45" value="" style="graphMlID=e6;rounded=0;endArrow=oval;strokeColor=#000000;strokeWidth=1.0;startArrow=none;startFill=1;endFill=0" parent="1" source="10" target="11" edge="1"><mxGeometry relative="1" as="geometry"><Array as="points"><mxPoint x="348.232" y="39.832000000000036"/></Array></mxGeometry></mxCell><mxCell id="46" value="" style="graphMlID=e7;rounded=0;endArrow=oval;strokeColor=#000000;strokeWidth=1.0;startArrow=none;startFill=1;endFill=0" parent="1" source="11" target="12" edge="1"><mxGeometry relative="1" as="geometry"><Array as="points"><mxPoint x="415.4320000000001" y="93.19200000000002"/></Array></mxGeometry></mxCell><mxCell id="47" value="" style="graphMlID=e8;rounded=0;endArrow=oval;strokeColor=#000000;strokeWidth=1.0;startArrow=none;startFill=1;endFill=0" parent="1" source="11" target="13" edge="1"><mxGeometry relative="1" as="geometry"><Array as="points"><mxPoint x="415.4320000000001" y="122.50000000000004"/></Array></mxGeometry></mxCell><mxCell id="48" value="" style="graphMlID=e9;rounded=0;endArrow=oval;strokeColor=#000000;strokeWidth=1.0;startArrow=none;startFill=1;endFill=0" parent="1" source="11" target="14" edge="1"><mxGeometry relative="1" as="geometry"><Array as="points"><mxPoint x="415.4320000000001" y="151.80800000000005"/></Array></mxGeometry></mxCell><mxCell id="49" value="" style="graphMlID=e10;rounded=0;endArrow=classic;strokeColor=#ffcc00;dashed=1;dashPattern=3 1;strokeWidth=3.0;startArrow=none;startFill=1;endFill=1;entryX=-0.012019491066597521;entryY=0.5" parent="1" source="2" target="8" edge="1"><mxGeometry relative="1" as="geometry"><Array as="points"><mxPoint x="-12.175999999999561" y="-21.54799999999996"/><mxPoint x="-12.175999999999561" y="7.760000000000062"/></Array></mxGeometry></mxCell><mxCell id="50" value="" style="graphMlID=e11;rounded=0;endArrow=classic;strokeColor=#ffcc00;dashed=1;dashPattern=3 1;strokeWidth=3.0;startArrow=none;startFill=1;endFill=1;entryX=-0.001191120736332303;entryY=0.5" parent="1" source="4" target="8" edge="1"><mxGeometry relative="1" as="geometry"><Array as="points"><mxPoint x="-12.175999999999561" y="37.06800000000008"/><mxPoint x="-12.175999999999561" y="7.760000000000062"/></Array></mxGeometry></mxCell><mxCell id="51" value="" style="graphMlID=e12;rounded=0;endArrow=classic;strokeColor=#ffcc00;dashed=1;dashPattern=3 1;strokeWidth=3.0;startArrow=none;startFill=1;endFill=1;exitX=1.0933402168301465;exitY=0.5;entryX=-0.6181944444444379;entryY=0.5" parent="1" source="8" target="12" edge="1"><mxGeometry relative="1" as="geometry"><Array as="points"><mxPoint x="243.82400000000047" y="7.760000000000062"/><mxPoint x="243.82400000000047" y="122.50000000000004"/><mxPoint x="368.232" y="122.50000000000004"/><mxPoint x="368.232" y="93.19200000000002"/></Array></mxGeometry></mxCell><mxCell id="52" value="" style="graphMlID=e13;rounded=0;endArrow=classic;strokeColor=#ffcc00;dashed=1;dashPattern=3 1;strokeWidth=3.0;startArrow=none;startFill=1;endFill=1;exitX=1.0778523489932854;exitY=0.5;entryX=-0.6181944444444379;entryY=0.5" parent="1" source="8" target="14" edge="1"><mxGeometry relative="1" as="geometry"><Array as="points"><mxPoint x="243.82400000000047" y="7.760000000000062"/><mxPoint x="243.82400000000047" y="122.50000000000004"/><mxPoint x="368.232" y="122.50000000000004"/><mxPoint x="368.232" y="151.80800000000005"/></Array></mxGeometry></mxCell><mxCell id="53" value="" style="graphMlID=e14;rounded=0;endArrow=oval;strokeColor=#000000;strokeWidth=1.0;startArrow=none;startFill=1;endFill=0" parent="1" source="15" target="16" edge="1"><mxGeometry relative="1" as="geometry"><Array as="points"><mxPoint x="415.4320000000001" y="453.7069733520337"/></Array></mxGeometry></mxCell><mxCell id="54" value="" style="graphMlID=e15;rounded=0;endArrow=oval;strokeColor=#000000;strokeWidth=1.0;startArrow=none;startFill=1;endFill=0" parent="1" source="15" target="17" edge="1"><mxGeometry relative="1" as="geometry"><Array as="points"><mxPoint x="415.4320000000001" y="483.01497335203373"/></Array></mxGeometry></mxCell><mxCell id="55" value="" style="graphMlID=e16;rounded=0;endArrow=oval;strokeColor=#000000;strokeWidth=1.0;startArrow=none;startFill=1;endFill=0" parent="1" source="15" target="18" edge="1"><mxGeometry relative="1" as="geometry"><Array as="points"><mxPoint x="415.4320000000001" y="512.3229733520337"/></Array></mxGeometry></mxCell><mxCell id="56" value="" style="graphMlID=e17;rounded=0;endArrow=oval;strokeColor=#000000;strokeWidth=1.0;startArrow=none;startFill=1;endFill=0" parent="1" source="10" target="15" edge="1"><mxGeometry relative="1" as="geometry"><Array as="points"><mxPoint x="348.232" y="400.34697335203373"/></Array></mxGeometry></mxCell><mxCell id="57" value="" style="graphMlID=e18;rounded=0;endArrow=oval;strokeColor=#000000;strokeWidth=1.0;startArrow=none;startFill=1;endFill=0" parent="1" source="15" target="19" edge="1"><mxGeometry relative="1" as="geometry"><Array as="points"><mxPoint x="415.4320000000001" y="541.6309733520337"/></Array></mxGeometry></mxCell><mxCell id="58" value="" style="graphMlID=e19;rounded=0;endArrow=oval;strokeColor=#000000;strokeWidth=1.0;startArrow=none;startFill=1;endFill=0" parent="1" source="15" target="20" edge="1"><mxGeometry relative="1" as="geometry"><Array as="points"><mxPoint x="415.4320000000001" y="570.9389733520337"/></Array></mxGeometry></mxCell><mxCell id="59" value="" style="graphMlID=e20;rounded=0;endArrow=classic;strokeColor=#ffcc00;dashed=1;dashPattern=3 1;strokeWidth=3.0;startArrow=none;startFill=1;endFill=1;exitX=1.24565972222223;exitY=0.5;entryX=0.5;entryY=-0.6095890410958942" parent="1" source="12" target="21" edge="1"><mxGeometry relative="1" as="geometry"><Array as="points"><mxPoint x="555.9820000000005" y="93.19200000000002"/><mxPoint x="555.9820000000005" y="122.50000000000004"/><mxPoint x="672.3380645161311" y="122.50000000000004"/></Array></mxGeometry></mxCell><mxCell id="60" value="" style="graphMlID=e21;rounded=0;endArrow=classic;strokeColor=#ffcc00;dashed=1;dashPattern=3 1;strokeWidth=3.0;startArrow=none;startFill=1;endFill=1;exitX=1.2803819444444522;exitY=0.5;entryX=0.5;entryY=-0.6095890410958942" parent="1" source="14" target="21" edge="1"><mxGeometry relative="1" as="geometry"><Array as="points"><mxPoint x="555.9820000000005" y="151.80800000000005"/><mxPoint x="555.9820000000005" y="122.50000000000004"/><mxPoint x="672.3380645161311" y="122.50000000000004"/></Array></mxGeometry></mxCell><mxCell id="61" value="" style="graphMlID=e22;rounded=0;endArrow=classic;strokeColor=#ffcc00;dashed=1;dashPattern=3 1;strokeWidth=3.0;startArrow=none;startFill=1;endFill=1;exitX=0.5;exitY=2.1945616438356064;entryX=1.1754261363636436;entryY=0.5" parent="1" source="21" target="16" edge="1"><mxGeometry relative="1" as="geometry"><Array as="points"><mxPoint x="672.3380645161311" y="510.45697335203374"/><mxPoint x="575.0800000000019" y="510.45697335203374"/><mxPoint x="575.0800000000019" y="453.70697335203374"/></Array></mxGeometry></mxCell><mxCell id="62" value="" style="graphMlID=e23;rounded=0;endArrow=classic;strokeColor=#ffcc00;dashed=1;dashPattern=3 1;strokeWidth=3.0;startArrow=none;startFill=1;endFill=1;exitX=0.5;exitY=2.3067808219177985;entryX=1.1754261363636436;entryY=0.5" parent="1" source="21" target="20" edge="1"><mxGeometry relative="1" as="geometry"><Array as="points"><mxPoint x="672.3380645161311" y="510.45697335203374"/><mxPoint x="575.0800000000019" y="510.45697335203374"/><mxPoint x="575.0800000000019" y="570.9389733520337"/></Array></mxGeometry></mxCell><mxCell id="63" value="" style="graphMlID=e24;rounded=0;endArrow=oval;strokeColor=#000000;strokeWidth=1.0;startArrow=none;startFill=1;endFill=0" parent="1" source="22" target="23" edge="1"><mxGeometry relative="1" as="geometry"><Array as="points"><mxPoint x="415.4320000000001" y="708.8569733520338"/></Array></mxGeometry></mxCell><mxCell id="64" value="" style="graphMlID=e25;rounded=0;endArrow=oval;strokeColor=#000000;strokeWidth=1.0;startArrow=none;startFill=1;endFill=0" parent="1" source="22" target="24" edge="1"><mxGeometry relative="1" as="geometry"><Array as="points"><mxPoint x="415.4320000000001" y="738.1649733520338"/></Array></mxGeometry></mxCell><mxCell id="65" value="" style="graphMlID=e26;rounded=0;endArrow=oval;strokeColor=#000000;strokeWidth=1.0;startArrow=none;startFill=1;endFill=0" parent="1" source="22" target="25" edge="1"><mxGeometry relative="1" as="geometry"><Array as="points"><mxPoint x="415.4320000000001" y="767.4729733520338"/></Array></mxGeometry></mxCell><mxCell id="66" value="" style="graphMlID=e27;rounded=0;endArrow=oval;strokeColor=#000000;strokeWidth=1.0;startArrow=none;startFill=1;endFill=0" parent="1" source="10" target="22" edge="1"><mxGeometry relative="1" as="geometry"><Array as="points"><mxPoint x="348.232" y="436.8373071528751"/><mxPoint x="348.232" y="655.4969733520337"/></Array></mxGeometry></mxCell><mxCell id="67" value="" style="graphMlID=e28;rounded=0;endArrow=classic;strokeColor=#ffcc00;dashed=1;dashPattern=3 1;strokeWidth=3.0;startArrow=none;startFill=1;endFill=1;exitX=-0.5862409090909043;exitY=0.5;entryX=0.5;entryY=-0.6755171232876892" parent="1" source="20" target="26" edge="1"><mxGeometry relative="1" as="geometry"><Array as="points"><mxPoint x="368.232" y="570.9389733520337"/><mxPoint x="368.232" y="514.1248933520334"/><mxPoint x="170.05199999999996" y="514.1248933520334"/></Array></mxGeometry></mxCell><mxCell id="68" value="" style="graphMlID=e29;rounded=0;endArrow=classic;strokeColor=#ffcc00;dashed=1;dashPattern=3 1;strokeWidth=3.0;startArrow=none;startFill=1;endFill=1;exitX=-0.5684852272727224;exitY=0.5;entryX=0.5;entryY=-0.6755171232876892" parent="1" source="16" target="26" edge="1"><mxGeometry relative="1" as="geometry"><Array as="points"><mxPoint x="368.232" y="453.70697335203374"/><mxPoint x="368.232" y="514.1248933520334"/><mxPoint x="170.05199999999996" y="514.1248933520334"/></Array></mxGeometry></mxCell><mxCell id="69" value="" style="graphMlID=e30;rounded=0;endArrow=classic;strokeColor=#ffcc00;dashed=1;dashPattern=3 1;strokeWidth=3.0;startArrow=none;startFill=1;endFill=1;exitX=0.5;exitY=1.875167808219157;entryX=-0.5446168478260889;entryY=0.49415022382755064" parent="1" source="27" target="37" edge="1"><mxGeometry relative="1" as="geometry"><Array as="points"><mxPoint x="170.05199999999996" y="857.9923547826085"/><mxPoint x="228.86702148667644" y="857.9923547826085"/><mxPoint x="228.86702148667644" y="887.5904347826089"/></Array></mxGeometry></mxCell><mxCell id="70" value="" style="graphMlID=e31;rounded=0;endArrow=classic;strokeColor=#ffcc00;dashed=1;dashPattern=3 1;strokeWidth=3.0;startArrow=none;startFill=1;endFill=1;exitX=0.5;exitY=1.769174657534223;entryX=-0.5635157385566764;entryY=0.5665729648984554" parent="1" source="27" target="35" edge="1"><mxGeometry relative="1" as="geometry"><Array as="points"><mxPoint x="170.05199999999996" y="857.9923547826085"/><mxPoint x="228.86702148667644" y="857.9923547826085"/><mxPoint x="228.86702148667644" y="830.6662300140252"/></Array></mxGeometry></mxCell><mxCell id="71" value="" style="graphMlID=e32;rounded=0;endArrow=classic;strokeColor=#ff6600;dashed=1;dashPattern=3 1;strokeWidth=3.0;startArrow=none;startFill=1;endFill=1" parent="1" source="12" target="12" edge="1"><mxGeometry relative="1" as="geometry"><Array as="points"><mxPoint x="501" y="44"/></Array></mxGeometry></mxCell><mxCell id="72" value="" style="graphMlID=e33;rounded=0;endArrow=oval;strokeColor=#000000;strokeWidth=1.0;startArrow=none;startFill=1;endFill=0" parent="1" source="30" target="31" edge="1"><mxGeometry relative="1" as="geometry"><Array as="points"><mxPoint x="415.4320000000001" y="251.4368920056101"/></Array></mxGeometry></mxCell><mxCell id="73" value="" style="graphMlID=e34;rounded=0;endArrow=oval;strokeColor=#000000;strokeWidth=1.0;startArrow=none;startFill=1;endFill=0" parent="1" source="30" target="32" edge="1"><mxGeometry relative="1" as="geometry"><Array as="points"><mxPoint x="415.4320000000001" y="280.74489200561015"/></Array></mxGeometry></mxCell><mxCell id="74" value="" style="graphMlID=e35;rounded=0;endArrow=oval;strokeColor=#000000;strokeWidth=1.0;startArrow=none;startFill=1;endFill=0" parent="1" source="30" target="33" edge="1"><mxGeometry relative="1" as="geometry"><Array as="points"><mxPoint x="415.4320000000001" y="338.7789733520337"/></Array></mxGeometry></mxCell><mxCell id="75" value="" style="graphMlID=e36;rounded=0;endArrow=classic;strokeColor=#ff6600;dashed=1;dashPattern=3 1;strokeWidth=3.0;startArrow=none;startFill=1;endFill=1;entryX=0.23422251138581665;entryY=-0.0008926159124034015" parent="1" source="14" target="31" edge="1"><mxGeometry relative="1" as="geometry"/></mxCell><mxCell id="76" value="" style="graphMlID=e37;rounded=0;endArrow=oval;strokeColor=#000000;strokeWidth=1.0;startArrow=none;startFill=1;endFill=0" parent="1" source="10" target="30" edge="1"><mxGeometry relative="1" as="geometry"><Array as="points"><mxPoint x="348.232" y="198.07689200561015"/></Array></mxGeometry></mxCell><mxCell id="77" value="" style="graphMlID=e38;rounded=0;endArrow=classic;strokeColor=#ff0000;dashed=1;dashPattern=3 1;strokeWidth=3.0;startArrow=none;startFill=1;endFill=1" parent="1" source="12" target="12" edge="1"><mxGeometry relative="1" as="geometry"><Array as="points"><mxPoint x="535.2082748948106" y="9.067321178120608"/></Array></mxGeometry></mxCell><mxCell id="78" value="" style="graphMlID=e39;rounded=0;endArrow=classic;strokeColor=#ffcc00;dashed=1;dashPattern=3 1;strokeWidth=2.0;startArrow=none;startFill=1;endFill=1;exitX=-0.08374934618288442;exitY=0.33110338335030487;entryX=0.9228250314634505;entryY=1.4565861015581494" parent="1" source="21" target="33" edge="1"><mxGeometry relative="1" as="geometry"/></mxCell><mxCell id="79" value="" style="graphMlID=e40;rounded=0;endArrow=classic;strokeColor=#ff6600;dashed=1;dashPattern=3 1;strokeWidth=3.0;startArrow=none;startFill=1;endFill=1" parent="1" source="35" target="35" edge="1"><mxGeometry relative="1" as="geometry"><Array as="points"><mxPoint x="372.5151400000003" y="775.7510855539973"/></Array></mxGeometry></mxCell><mxCell id="80" value="" style="graphMlID=e41;rounded=0;endArrow=oval;strokeColor=#000000;strokeWidth=1.0;startArrow=none;startFill=1;endFill=0" parent="1" source="9" target="35" edge="1"><mxGeometry relative="1" as="geometry"><Array as="points"><mxPoint x="281.032" y="829.1110855539973"/></Array></mxGeometry></mxCell><mxCell id="81" value="" style="graphMlID=e42;rounded=0;endArrow=oval;strokeColor=#000000;strokeWidth=1.0;startArrow=none;startFill=1;endFill=0" parent="1" source="9" target="36" edge="1"><mxGeometry relative="1" as="geometry"><Array as="points"><mxPoint x="281.032" y="858.4190855539973"/></Array></mxGeometry></mxCell><mxCell id="82" value="" style="graphMlID=e43;rounded=0;endArrow=oval;strokeColor=#000000;strokeWidth=1.0;startArrow=none;startFill=1;endFill=0" parent="1" source="9" target="37" edge="1"><mxGeometry relative="1" as="geometry"><Array as="points"><mxPoint x="281.032" y="887.7270855539973"/></Array></mxGeometry></mxCell><mxCell id="83" value="" style="graphMlID=e44;rounded=0;endArrow=classic;strokeColor=#ffcc00;dashed=1;dashPattern=3 1;strokeWidth=3.0;startArrow=none;startFill=1;endFill=1;exitX=1.0692177819839344;exitY=0.5;entryX=0.5;entryY=1.2301829952160557" parent="1" source="35" target="25" edge="1"><mxGeometry relative="1" as="geometry"><Array as="points"><mxPoint x="420.1119534361851" y="829.1110855539973"/><mxPoint x="420.1119534361851" y="857.4211896065079"/><mxPoint x="479.4320000000001" y="857.4211896065079"/></Array></mxGeometry></mxCell><mxCell id="84" value="" style="graphMlID=e45;rounded=0;endArrow=classic;strokeColor=#ffcc00;dashed=1;dashPattern=3 1;strokeWidth=3.0;startArrow=none;startFill=1;endFill=1;exitX=1.073249545339793;exitY=0.5;entryX=0.5;entryY=1.254484034621231" parent="1" source="37" target="25" edge="1"><mxGeometry relative="1" as="geometry"><Array as="points"><mxPoint x="420.1119534361851" y="887.7270855539973"/><mxPoint x="420.1119534361851" y="857.4211896065079"/><mxPoint x="479.4320000000001" y="857.4211896065079"/></Array></mxGeometry></mxCell></root></mxGraphModel></diagram></mxfile>